<svg xmlns="http://www.w3.org/2000/svg" xmlns:xlink="http://www.w3.org/1999/xlink" version="1.1" x="0px" y="0px" viewBox="0 0 100 100" style="enable-background:new 0 0 100 100;" xml:space="preserve"><path d="M96.9,57.2c0-0.1,0-0.1,0-0.2L83.8,30.2v-4.3c0-0.6-0.5-1.2-1.2-1.2H56.1c-0.7-1.4-1.8-2.5-3.2-3.2V6.4  c0-0.6-0.5-1.2-1.2-1.2h-4.5c-0.6,0-1.2,0.5-1.2,1.2v15.1c-1.4,0.7-2.5,1.8-3.2,3.2H16.3c-0.6,0-1.2,0.5-1.2,1.2v4.3L2.1,57  c0,0.1,0,0.1,0,0.2c0,0.1,0,0.1,0,0.2c0,0.1,0,0.2,0,0.4c0,0,0,0.1,0,0.1c0,0,0,0,0,0c0,0,0,0,0,0c0.2,0.6,3.1,9.2,14.3,9.2  s14.1-8.6,14.3-9.2c0,0,0,0,0,0c0,0,0,0,0,0c0,0,0-0.1,0-0.1c0-0.1,0-0.2,0-0.4c0-0.1,0-0.1,0-0.2c0-0.1,0-0.1,0-0.2L18.2,31.7h24.6  c0.7,1.4,1.8,2.5,3.2,3.2v52.7H31c-0.6,0-1.2,0.5-1.2,1.2v4.5c0,0.6,0.5,1.2,1.2,1.2h36.9c0.6,0,1.2-0.5,1.2-1.2v-4.5  c0-0.6-0.5-1.2-1.2-1.2h-15V34.9c1.4-0.7,2.5-1.8,3.2-3.2h24.6L68.4,57c0,0.1,0,0.1,0,0.2c0,0.1,0,0.1,0,0.2c0,0.1,0,0.2,0,0.4  c0,0,0,0.1,0,0.1c0,0,0,0,0,0c0,0,0,0,0,0c0.2,0.6,3.1,9.2,14.3,9.2s14.1-8.6,14.3-9.2c0,0,0,0,0,0c0,0,0,0,0,0c0,0,0-0.1,0-0.1  c0-0.1,0-0.2,0-0.4C96.9,57.3,96.9,57.2,96.9,57.2z M16.3,64.7c-7.1,0-10.2-3.8-11.4-6h22.8C26.5,60.9,23.4,64.7,16.3,64.7z   M27.7,56.3H5l11.3-23.2L27.7,56.3z M42,29.3H17.5v-2.2H42c-0.1,0.4-0.1,0.7-0.1,1.1S42,29,42,29.3z M48.4,7.6h2.2v13.2  c-0.4-0.1-0.7-0.1-1.1-0.1c-0.4,0-0.7,0-1.1,0.1V7.6z M66.7,89.9v2.2H32.2v-2.2h15c0.6,0,1.2-0.5,1.2-1.2V35.6  c0.4,0.1,0.7,0.1,1.1,0.1c0.4,0,0.7-0.1,1.1-0.1v53.1c0,0.6,0.5,1.2,1.2,1.2H66.7z M49.5,33.6c-3,0-5.4-2.4-5.4-5.4  c0-3,2.4-5.4,5.4-5.4c3,0,5.4,2.4,5.4,5.4C54.9,31.2,52.5,33.6,49.5,33.6z M56.9,29.3C57,29,57,28.6,57,28.2s0-0.7-0.1-1.1h24.5v2.2  H56.9z M82.6,33.1l11.3,23.2H71.3L82.6,33.1z M82.6,64.7c-7.1,0-10.2-3.8-11.4-6H94C92.8,60.9,89.7,64.7,82.6,64.7z"/></svg>
