<svg xmlns="http://www.w3.org/2000/svg" xmlns:xlink="http://www.w3.org/1999/xlink" version="1.1" x="0px" y="0px" viewBox="0 0 100 100" enable-background="new 0 0 100 100" xml:space="preserve"><g><polygon points="5.331,75.922 23.085,58.162 26.986,62.068 9.232,79.822  "/></g><path d="M62.183,43.127c0,11.132-9.029,20.148-20.156,20.148c-11.132,0-20.155-9.016-20.155-20.148  c0-11.127,9.023-20.162,20.155-20.162C53.153,22.965,62.183,32,62.183,43.127L62.183,43.127z M59.921,43.127  c0-9.881-8.015-17.9-17.895-17.9c-9.887,0-17.899,8.02-17.899,17.9c0,9.886,8.013,17.894,17.899,17.894  C51.906,61.021,59.921,53.014,59.921,43.127L59.921,43.127z"/><g><path d="M39.319,65.131v11.793h48.083V52.322h6.309c0.477,0,0.857-0.387,0.857-0.863c0-0.225-0.089-0.445-0.24-0.598l-8.642-8.859   v-15.44H78.1v7.671L63.363,19.141l-6.945,7.116c0.738,0.636,1.438,1.315,2.085,2.04l4.86-4.982L81.009,41.38l1.761,1.817   l6.074,6.214h-4.347V74.01H42.236v-8.705C41.264,65.305,40.292,65.258,39.319,65.131z"/></g><g><path d="M39.319,52.322v6.455c0.967,0.166,1.944,0.242,2.917,0.229v-9.594H37.89l16.204-16.603   c-0.63-0.745-1.336-1.424-2.092-2.034L32.406,50.861c-0.337,0.342-0.331,0.889,0.013,1.219c0.159,0.152,0.375,0.242,0.604,0.242   H39.319z"/></g></svg>
