<svg xmlns="http://www.w3.org/2000/svg" xmlns:xlink="http://www.w3.org/1999/xlink" version="1.1" x="0px" y="0px" viewBox="0 0 100 100" enable-background="new 0 0 100 100" xml:space="preserve"><g><path d="M21.419,42.522l0.461,4.116c18.193,7.927,38.866,7.927,57.075,0l0.459-4.116C60.943,34.325,39.876,34.325,21.419,42.522z"/></g><path d="M84.987,28.622l-6.581,9.952c-17.888-7.612-38.092-7.612-55.979,0l-6.581-9.952c-0.095-0.139-0.176-0.285-0.241-0.439  c-0.512-1.279,0.104-2.721,1.376-3.24c8.372-3.393,16.021-8.336,22.55-14.574c6.092-5.814,15.679-5.814,21.771,0  c6.522,6.238,14.18,11.181,22.543,14.574c0.155,0.051,0.302,0.14,0.439,0.227C85.433,25.93,85.747,27.473,84.987,28.622z   M45.601,20.277c-0.928,1.332-0.605,3.16,0.725,4.095c0.395,0.271,0.856,0.447,1.323,0.505c1.126,0.139,2.136,0.761,2.764,1.697  c0.637-0.936,1.639-1.558,2.766-1.697c1.615-0.197,2.75-1.667,2.551-3.275c-0.051-0.484-0.227-0.937-0.503-1.325  c-0.067-0.102-0.133-0.204-0.183-0.307c-0.645-1.266-0.14-2.808,1.125-3.459l-2.757-2.45c-0.153,0.644-0.694,1.113-1.347,1.17  c-0.84,0.081-1.571-0.541-1.652-1.374c-0.059,0.651-0.524,1.199-1.169,1.346c-0.818,0.183-1.632-0.322-1.821-1.142l-2.756,2.45  c0.103,0.06,0.203,0.119,0.307,0.191C46.135,17.514,46.414,19.115,45.601,20.277z"/><g><path d="M81.44,48.335c4.175,6.545,2.771,15.173-3.276,20.037c-3.231,12.241-12.22,22.142-24.103,26.515   c-2.355,0.871-4.936,0.871-7.298,0c-11.876-4.373-20.87-14.273-24.102-26.515c-6.047-4.863-7.459-13.491-3.276-20.037l3.984,2.552   c-3.122,4.878-1.695,11.349,3.175,14.471c0.102,0.06,0.205,0.125,0.309,0.176c2.42,11.467,10.557,20.87,21.548,24.921   c1.294,0.482,2.729,0.482,4.029,0c10.985-4.051,19.122-13.454,21.551-24.921c4.98-2.954,6.618-9.374,3.663-14.354   c-0.059-0.103-0.116-0.198-0.183-0.293L81.44,48.335z"/></g><g><path d="M52.468,59.919l3.306,4.146c3.255,4.096,9.214,4.775,13.3,1.521c3.965-3.16,4.739-8.87,1.771-12.973   c-13.439,3.846-27.706,3.816-41.133-0.08c-3.107,4.205-2.229,10.135,1.975,13.25c4.102,3.034,9.865,2.273,13.046-1.719l3.298-4.146   c0.131-0.161,0.285-0.321,0.453-0.447C49.712,58.493,51.495,58.697,52.468,59.919z"/></g></svg>
