<svg xmlns="http://www.w3.org/2000/svg" xmlns:xlink="http://www.w3.org/1999/xlink" version="1.1" x="0px" y="0px" viewBox="0 0 100 100" enable-background="new 0 0 100 100" xml:space="preserve"><g><path d="M35,16.3c-0.2,0-0.3-0.1-0.4-0.2l-6.8-6.4c-0.3-0.2-0.3-0.6,0-0.9c0.2-0.3,0.6-0.3,0.9,0l6.8,6.4c0.3,0.2,0.3,0.6,0,0.9   C35.4,16.3,35.2,16.3,35,16.3z"/></g><g><path d="M35,19.2C35,19.2,35,19.2,35,19.2l-8.2-1c-0.4,0-0.6-0.4-0.6-0.7s0.4-0.6,0.7-0.6l8.1,1c0.4,0,0.6,0.4,0.6,0.7   C35.6,19,35.3,19.2,35,19.2z"/></g><g><path d="M28.6,24.1c-0.3,0-0.5-0.2-0.6-0.4c-0.1-0.3,0-0.7,0.4-0.8l6.4-2.4c0.3-0.1,0.7,0,0.8,0.4s0,0.7-0.4,0.8l-6.4,2.4   C28.8,24.1,28.7,24.1,28.6,24.1z"/></g><g><path d="M38.1,15.5c-0.3,0-0.5-0.2-0.6-0.4l-3.1-8.9c-0.1-0.3,0.1-0.7,0.4-0.8c0.3-0.1,0.7,0.1,0.8,0.4l3.1,8.9   c0.1,0.3-0.1,0.7-0.4,0.8C38.3,15.5,38.2,15.5,38.1,15.5z"/></g><g><path d="M40.5,15c0,0-0.1,0-0.1,0c-0.4-0.1-0.6-0.4-0.5-0.7l1-5.7c0.1-0.4,0.4-0.6,0.7-0.5c0.4,0.1,0.6,0.4,0.5,0.7l-1,5.7   C41.1,14.8,40.8,15,40.5,15z"/></g><path d="M63.7,90.1l-1.9-1.3l0.1-0.7l1.4-0.6c-0.7-0.5-3.1-9.9-3.3-13.7c-0.1-3.8-2-16.6-2-16.6l0.9-3.8c3.1-0.8,4-9.6,4-10.5  s0.8-2.8,0.8-4.1s-3.3-12.5-4.5-13.1s-7.4-2.4-7.4-2.4l-2-2V20c0.9-1.7,1-3.2,1-3.2c3.1-1.5,1.6-3.2,1.1-4c-0.5-0.7-3.6-2.8-5.4-2.8  c-1.8,0.1-4.8,2.8-5,3.2c-0.2,0.5,0.6,2.4,0.6,2.4c1.2,0.6,1.1,1.1,1.1,1.1c-0.7,0.5,0.7,3.3,0.7,3.3v1.2l-1.5,2.1l-2.7,0.8  c-0.1-0.6,1.1-1.1,1.1-1.1c1.7-0.3,1.2-2.6,1.2-2.6c0.5-0.4,0-2.2,0-2.2h-0.6c0.2-0.7-1.6-1.6-1.6-1.6c-0.1-1.5-1.5-0.1-2.7,0  s-1.1,2.2-1,2.4c0.1,0.3,0.4,2.9,0.4,2.9v0.5l-1.3,2.1l-2.1-0.4l-2.8,7.6c0,0-1,1-0.8,2.4c0.2,1.4,2.1,4.6,2.6,5  c0.5,0.4,1.9-0.4,1.9-0.4l3.8-2.9c0,0,0.7,1.3,1.2,3c0.5,1.7-0.7,8.2-0.9,11.7c-0.2,3.5-5.1,23.2-5.1,23.8c0,0.6-1,13.4-1,13.4h2  l-0.6,1.8l-1.4,2.3l0.1,1.1l7.9-0.1l-0.3-5.2c0,0,2.2-0.7,2.2-0.4s-0.4-6.2-0.4-7.3s2.7-14.6,2.7-14.6l2.8-11.3  c0,0,2.8,12.5,3.2,13.7c0.4,1.2,1.8,14.4,1.8,15s1.6,5.8,1.6,5.8h0.7v3.6l0.6,0.6h12v-1.7L63.7,90.1z M39.2,23.7l-2,7.1  c-0.1,0.3-0.3,0.5-0.6,0.5c-0.1,0-0.1,0-0.2,0c-0.3-0.1-0.5-0.5-0.4-0.8l2-7.1c0.1-0.3,0.5-0.5,0.8-0.4C39.1,23,39.3,23.3,39.2,23.7  z M38.3,19.1c0-0.8,0.7-1.5,1.5-1.5s1.5,0.7,1.5,1.5s-0.7,1.5-1.5,1.5S38.3,19.9,38.3,19.1z M43.7,15.2l4.6-3.2  c0.3-0.2,0.7-0.1,0.9,0.2c0.2,0.3,0.1,0.7-0.2,0.9l-4.6,3.2c-0.1,0.1-0.2,0.1-0.4,0.1c-0.2,0-0.4-0.1-0.5-0.3  C43.4,15.8,43.5,15.4,43.7,15.2z M47.4,28.8C47.3,28.9,47.1,29,47,29c-0.2,0-0.4-0.1-0.5-0.3l-3.4-4.8c-0.2-0.3-0.1-0.7,0.2-0.9  c0.3-0.2,0.7-0.1,0.9,0.2l3.4,4.8C47.7,28.2,47.7,28.6,47.4,28.8z M48.8,18.7l-4.6,0.5c0,0,0,0-0.1,0c-0.3,0-0.6-0.2-0.6-0.6  c0-0.4,0.2-0.7,0.6-0.7l4.6-0.5c0.4,0,0.7,0.2,0.7,0.6C49.4,18.4,49.1,18.7,48.8,18.7z M54.5,30.6c-0.2,0.1-0.2,0.3-0.2,0.5  c0,0.2,0,0.5,0.1,0.7c0.1,0.3,0.1,0.5,0.1,0.8c0,0.7-0.4,1.3-1.1,1.4c-0.2,0-0.3,0.1-0.5,0.1c-0.2,0-0.4,0.1-0.6,0.2  c-0.1,0-0.1,0.1-0.2,0.2c0,0,0,0-0.1,0c-0.2-0.2-0.5-0.3-0.8-0.4c-0.3,0-0.5-0.1-0.8-0.2c-0.5-0.2-0.8-0.6-0.8-1.1  c0-0.1,0-0.1,0-0.2c0-0.3,0.1-0.5,0.1-0.8c0.1-0.2,0.1-0.4,0.1-0.6c0-0.2-0.1-0.4-0.2-0.5c0,0,0-0.1,0-0.1c0.2-0.3,0.4-0.6,0.6-1  c0-0.1,0.1-0.1,0.1,0c0.3,0.2,0.5,0.3,0.9,0.2c0.3,0,0.5-0.1,0.8-0.3c0,0,0,0,0,0c0.1-0.1,0.1-0.1,0.2,0c0.3,0.3,0.6,0.4,1,0.4  c0.2,0,0.4-0.1,0.6-0.2c0.1,0,0.1,0,0.1,0c0.2,0.3,0.4,0.6,0.6,1C54.5,30.5,54.5,30.5,54.5,30.6z"/></svg>
