<svg xmlns="http://www.w3.org/2000/svg" xmlns:xlink="http://www.w3.org/1999/xlink" version="1.1" x="0px" y="0px" viewBox="0 0 100 100" style="enable-background:new 0 0 100 100;" xml:space="preserve"><path d="M85.664,56.766C88.168,56.045,90,53.737,90,51c0-3.314-2.686-6-6-6h-4l-2-6c-3-9-12-9-12-9h-6H36h-6c0,0-9,0-12,9l-2,6h-4  c-3.314,0-6,2.686-6,6c0,2.737,1.832,5.045,4.336,5.766C7.687,58.967,6,62.287,6,66v12c0,1.734,1.116,3.133,3,4.262V93  c0,1.657,1.343,3,3,3h9c1.657,0,3-1.343,3-3v-6.95C32.643,86.999,42.33,87,48,87s15.358,0,24-0.95V93c0,1.657,1.343,3,3,3h9  c1.657,0,3-1.343,3-3V82.262c1.883-1.13,3-2.528,3-4.262V66C90,62.287,88.313,58.967,85.664,56.766z M84,48c1.657,0,3,1.343,3,3  s-1.343,3-3,3h-1l-2-6H84z M20.846,39.949c0.937-2.81,2.712-4.895,5.44-6.068C27.287,33.451,28.888,33,30,33h36  c1.112,0,2.713,0.451,3.713,0.881c2.729,1.174,4.504,3.259,5.44,6.068L79.837,54H78.06h-0.03H78h-3H21h-3h-0.031h-0.03h-1.777  L20.846,39.949z M9,51c0-1.657,1.343-3,3-3h3l-2,6h-1C10.343,54,9,52.657,9,51z M21,93h-9v-9.361c2.502,0.896,5.615,1.553,9,2.035  V93z M84,93h-9v-7.326c3.384-0.482,6.498-1.139,9-2.035V93z M87,78c0,0.085-0.011,0.167-0.036,0.249  c-0.466,1.512-4.614,2.817-5.92,3.175c-4.549,1.249-9.71,1.764-14.411,2.09C60.427,83.944,54.218,84,48,84  s-12.427-0.056-18.633-0.487c-4.701-0.326-9.862-0.841-14.411-2.09c-1.305-0.358-5.453-1.663-5.92-3.175C9.011,78.167,9,78.085,9,78  V66c0-4.97,4.03-9,9-9h3h54h3c4.97,0,9,4.03,9,9V78z M31.5,27h33c0.828,0,1.5-0.672,1.5-1.5v-3c0-2.485-2.015-4.5-4.5-4.5  c-15,0-12,0-27,0c-2.485,0-4.5,2.015-4.5,4.5v3C30,26.328,30.672,27,31.5,27z M33,22.5c0-0.828,0.672-1.5,1.5-1.5c15,0,12,0,27,0  c0.828,0,1.5,0.672,1.5,1.5V24H33V22.5z M68.924,17.196l2.121-2.121c0.586-0.586,0.586-1.535,0-2.121s-1.536-0.586-2.121,0  l-2.121,2.121c-0.586,0.586-0.586,1.536,0,2.121C67.389,17.782,68.338,17.782,68.924,17.196z M69,22.5c0,0.828,0.672,1.5,1.5,1.5h3  c0.828,0,1.5-0.672,1.5-1.5S74.328,21,73.5,21h-3C69.672,21,69,21.672,69,22.5z M61.5,15c0.828,0,1.5-0.672,1.5-1.5v-3  C63,9.672,62.328,9,61.5,9S60,9.672,60,10.5v3C60,14.328,60.672,15,61.5,15z M43.5,15c0.828,0,1.5-0.672,1.5-1.5v-3  C45,9.672,44.328,9,43.5,9S42,9.672,42,10.5v3C42,14.328,42.672,15,43.5,15z M34.5,15c0.828,0,1.5-0.672,1.5-1.5v-3  C36,9.672,35.328,9,34.5,9S33,9.672,33,10.5v3C33,14.328,33.672,15,34.5,15z M52.5,15c0.828,0,1.5-0.672,1.5-1.5v-3  C54,9.672,53.328,9,52.5,9S51,9.672,51,10.5v3C51,14.328,51.672,15,52.5,15z M27.076,17.196c0.586,0.586,1.535,0.586,2.121,0  c0.586-0.585,0.586-1.535,0-2.121l-2.121-2.121c-0.585-0.586-1.535-0.586-2.121,0s-0.586,1.535,0,2.121L27.076,17.196z M64.5,66h-33  c-0.828,0-1.5,0.672-1.5,1.5s0.672,1.5,1.5,1.5h33c0.828,0,1.5-0.672,1.5-1.5S65.328,66,64.5,66z M78,63c-3.314,0-6,2.686-6,6  s2.686,6,6,6s6-2.686,6-6S81.314,63,78,63z M78,72c-1.657,0-3-1.343-3-3s1.343-3,3-3s3,1.343,3,3S79.657,72,78,72z M22.5,24h3  c0.828,0,1.5-0.672,1.5-1.5S26.328,21,25.5,21h-3c-0.828,0-1.5,0.672-1.5,1.5S21.672,24,22.5,24z M18,63c-3.314,0-6,2.686-6,6  s2.686,6,6,6s6-2.686,6-6S21.314,63,18,63z M18,72c-1.657,0-3-1.343-3-3s1.343-3,3-3s3,1.343,3,3S19.657,72,18,72z M61.5,72h-27  c-0.828,0-1.5,0.672-1.5,1.5s0.672,1.5,1.5,1.5h27c0.828,0,1.5-0.672,1.5-1.5S62.328,72,61.5,72z"/></svg>
