<svg xmlns="http://www.w3.org/2000/svg" xmlns:xlink="http://www.w3.org/1999/xlink" version="1.1" x="0px" y="0px" viewBox="0 0 100 100" enable-background="new 0 0 100 100" xml:space="preserve"><g><g><path d="M68.1,91.6c-0.5,0-1.1-0.1-1.7-0.3c-0.8-0.3-2-0.5-3.4-0.8c-3.8-0.8-8.2-1.7-9.8-4c-1.9-2.9-3-5.1-2.9-8    c0-0.1,0-0.2-0.8-0.8c-1.4-1-3.6-2.6-5.1-7.3c-1.9-6.1-5.4-7.1-5.6-7.1c-0.1,0-0.1,0-0.2-0.1c-0.6-0.2-2.5-0.9-3.8-0.9    c-0.4,0-0.5,0.1-0.5,0.1c-0.2,0.2-0.6,1.1-0.8,1.7c-0.7,1.8-1.7,4.2-4.2,4.5c-0.1,0-0.3,0-0.4,0c-3.1,0-11.8-3.6-12-7.2l0-0.5    c-0.1-2.1-0.2-4.3-3-6.8c-1.9-1.7-3.4-3.3-4.6-4.5c-1.1-1.1-2-2.1-2.7-2.7c-0.6-0.5-1.1-1.1-1.5-1.8c-0.4-0.8-0.4-1.8,0.1-2.6    c0.5-0.8,1.4-1.3,2.3-1.3h18.7V10.7c0-1.5,1.2-2.7,2.7-2.7H47c1.5,0,2.7,1.1,2.7,2.6l0.5,12.8c0.2,0,0.5,0.1,0.9,0    c2.4-0.4,4,1.3,4.7,2.8c0.2,0.2,0.7,0.2,1.4-0.1c0.7-0.3,1.4-0.5,2-0.5c1.5,0,2.5,0.8,3,1.3c0,0,0.1,0.1,0.1,0.1    c0.6,0.1,1.8,0.3,2.9,0.3c0.8,0,1.2-0.1,1.5-0.2c0.6-0.2,1.1-0.3,1.7-0.3c1.2,0,2,0.5,2.6,0.8c0.1,0,0.2,0.1,0.2,0.1    c0,0,0.1,0,0.3,0c1,0,3-0.4,4-1.4c0.6-0.5,1.3-0.8,2-0.8c1.8,0,3.5,1.7,4.3,2.7c1,0.4,2.1,0.7,2.7,0.7c1.5,0,2.6,1.1,2.7,2.5    c0.1,1.6,0.3,4.6,0.5,8.8c1.8,1.2,2.5,2.4,2.4,3.6c0,0.5,0.5,2.2,0.9,2.8c0.4,0.1,0.8,0.4,1.1,1.1c0.5,1.2,0.7,4.3-0.6,5.8    c-0.2,0.3-0.2,1.5,0,2.4c0.6,1.5,1.1,4.3-1.2,5.5c-0.9,0.5-2,0.7-3.2,0.9c-1.4,0.2-3.1,0.5-3.4,1.2c-1.1,2.4-7.5,6.5-11.2,8.7    c-0.4,0.4-4.1,3.9-3.6,7.3c0.6,4.2,2.3,7.8,2.4,7.8c0.1,0.2,0.2,0.4,0.2,0.7C71.4,89.9,70.2,91.6,68.1,91.6z M39.7,60.3    c0.9,0.3,5.3,1.9,7.6,9.1c1.2,3.8,2.8,4.9,4,5.8c1,0.7,2.2,1.6,2.1,3.4c-0.1,2.1,0.8,3.8,2.4,6.2c0.9,1.3,5.1,2.2,7.9,2.8    c1.5,0.3,2.8,0.6,3.7,0.9c0.7,0.2,0.9,0.1,0.9,0.1c0,0,0-0.1,0.1-0.1c-0.5-1.2-1.9-4.4-2.4-8.3c-0.7-4.8,3.7-9.2,4.6-10    c0.1-0.1,0.3-0.2,0.4-0.3c5.1-3.1,9.6-6.4,10.1-7.4c1.1-2.2,3.6-2.6,5.7-2.9c0.8-0.1,1.8-0.3,2.2-0.5c0.4-0.2,0.1-1.4-0.1-1.8    c0-0.1-0.1-0.1-0.1-0.2c-0.2-0.6-0.9-3.6,0.6-5.3c0.2-0.3,0.3-1.6,0.2-2.3c-0.2-0.1-0.3-0.2-0.5-0.4c-0.9-1-1.8-3.7-1.8-5.1    c-0.1-0.2-0.5-0.6-1.2-1.1c-0.7-0.5-1.1-1.2-1.2-2.1c-0.2-4.9-0.4-7.4-0.4-8.6c-1.4-0.1-2.9-0.6-3.7-1c-0.4-0.2-0.8-0.4-1-0.8    c-0.9-1.1-1.7-1.6-2-1.6c-1.6,1.5-4.2,2.2-6,2.2c-0.7,0-1.2-0.1-1.6-0.3c-0.2-0.1-0.3-0.2-0.5-0.3c-0.7-0.4-1-0.5-1.7-0.3    c-0.7,0.2-1.5,0.4-2.5,0.4c-1.6,0-3.1-0.3-3.7-0.4c-0.6-0.1-1-0.5-1.3-0.7c-0.7-0.6-1-0.7-1.8-0.4c-1.9,0.9-3.9,0.6-5-0.7    c-0.2-0.2-0.3-0.4-0.4-0.7c-0.1-0.2-0.6-1.3-1.5-1.1c-1.4,0.2-2.5,0-3.4-0.6c-0.6-0.5-1-1.2-1-2L46.7,11H29.4v30.4    c0,1.5-1.2,2.7-2.7,2.7H8.2c0.1,0.1,0.2,0.2,0.3,0.3c0.9,0.7,1.9,1.8,3,2.9c1.2,1.3,2.6,2.8,4.4,4.4c3.7,3.3,3.9,6.6,4,8.9l0,0.5    c0.4,1.2,6.5,4.3,9,4.3c0,0,0.1,0,0.1,0c0.7-0.1,1.3-1.5,1.7-2.6c0.5-1.2,0.9-2.3,1.7-2.9c0.6-0.5,1.4-0.7,2.4-0.7    C36.8,59.2,39.2,60.1,39.7,60.3z"/></g></g></svg>
