<svg xmlns="http://www.w3.org/2000/svg" xmlns:xlink="http://www.w3.org/1999/xlink" version="1.1" x="0px" y="0px" viewBox="0 0 100 100" enable-background="new 0 0 100 100" xml:space="preserve"><path d="M80.3,35.5H63.3v-12c0-5.8-1.8-10.1-5.2-12.6c-5.4-4-12.8-1.7-13.1-1.6c-1.3,0.4-2.2,1.6-2.2,3v14.6  c0,10.7-12.4,14.4-13.2,14.6c-1.1-1.2-2.6-2-4.4-2H12.8C9.6,39.4,7,42,7,45.2v38.3c0,3.2,2.6,5.8,5.8,5.8h12.3  c1.4,0,2.6-0.5,3.6-1.3c2.3,2.1,5.3,3.5,8.7,3.5h35.8c8.4,0,13.9-4.6,14.9-12.3L93,49c0-0.2,0-0.3,0-0.5v-0.4  C93,41.2,87.3,35.5,80.3,35.5z M24.8,83.1H13.2V45.6h11.6V83.1z M86.8,48.3L82,78.4c0,0,0,0.1,0,0.1c-0.2,1.7-0.8,6.9-8.7,6.9H37.5  c-3.6,0-6.5-2.9-6.5-6.5V47.5c0.1,0,0.1,0,0.2-0.1c0.7-0.2,17.7-5.1,17.7-20.6V14.7c1.6-0.2,3.8-0.1,5.4,1.1  c1.8,1.3,2.7,3.9,2.7,7.6v15.1c0,1.7,1.4,3.1,3.1,3.1h20.2c3.6,0,6.5,2.9,6.5,6.5V48.3z"/></svg>
