<svg xmlns="http://www.w3.org/2000/svg" xmlns:xlink="http://www.w3.org/1999/xlink" version="1.1" x="0px" y="0px" viewBox="0 0 100 100" enable-background="new 0 0 100 100" xml:space="preserve"><path d="M88.2,20.7c-1-7.7-6.5-12.3-14.9-12.3H37.5c-3.4,0-6.4,1.3-8.7,3.5c-1-0.8-2.3-1.3-3.6-1.3H12.8c-3.2,0-5.8,2.6-5.8,5.8  v38.3c0,3.2,2.6,5.8,5.8,5.8h12.3c1.8,0,3.3-0.8,4.4-2c0.7,0.2,13.2,4,13.2,14.6v14.6c0,1.4,0.9,2.6,2.2,3c0.2,0.1,2.4,0.7,5.2,0.7  c2.5,0,5.4-0.5,7.9-2.4c3.5-2.5,5.2-6.8,5.2-12.6v-12h17.1c7,0,12.7-5.7,12.7-12.7v-0.4c0-0.2,0-0.3,0-0.5L88.2,20.7z M24.8,54.4  H13.2V16.9h11.6V54.4z M86.8,51.8c0,3.6-2.9,6.5-6.5,6.5H60.1c-1.7,0-3.1,1.4-3.1,3.1v15.1c0,3.7-0.9,6.3-2.6,7.6  c-1.5,1.1-3.7,1.3-5.4,1.1V73.2c0-15.5-17-20.4-17.7-20.6c-0.1,0-0.1,0-0.2-0.1V21.2c0-3.6,2.9-6.5,6.5-6.5h35.8  c7.9,0,8.5,5.2,8.7,6.9c0,0,0,0.1,0,0.1l4.8,30.1V51.8z"/></svg>
