<?xml version="1.0" encoding="UTF-8" standalone="no"?>
<svg width="34px" height="96px" viewBox="0 0 34 96" version="1.1" xmlns="http://www.w3.org/2000/svg" xmlns:xlink="http://www.w3.org/1999/xlink" xmlns:sketch="http://www.bohemiancoding.com/sketch/ns">
    <!-- Generator: Sketch 3.4.4 (17249) - http://www.bohemiancoding.com/sketch -->
    <title>noun_169415_cc</title>
    <desc>Created with Sketch.</desc>
    <defs></defs>
    <g id="wires" stroke="none" stroke-width="1" fill="none" fill-rule="evenodd" sketch:type="MSPage">
        <g id="Style-Tile-A-Copy-2" sketch:type="MSArtboardGroup" transform="translate(-493.000000, -778.000000)" fill="#175FED">
            <g id="noun_169415_cc" sketch:type="MSLayerGroup" transform="translate(493.000000, 778.000000)">
                <path d="M32.585,42.723 C31.6,39.343 29.799,37.883 27.932,35.219 C26.829,33.653 25.315,30.843 25.122,28.321 C25.101,28.061 25.098,27.805 25.107,27.554 C25.366,21.753 25.152,16.954 24.849,13.451 C24.685,11.582 24.495,10.082 24.34,8.993 C24.306,8.787 24.278,8.622 24.259,8.487 L24.906,7.859 C25.151,7.666 25.337,7.393 25.387,7.073 C25.448,6.751 25.375,6.433 25.211,6.164 L23.725,3.05 C23.579,1.797 22.683,1.026 21.558,0.967 L12.43,0.965 C11.329,0.991 10.306,1.717 10.173,3.056 L8.7,6.177 C8.539,6.443 8.464,6.763 8.526,7.081 C8.58,7.403 8.763,7.675 9.009,7.868 L9.649,8.488 C9.446,9.657 9.316,10.847 9.191,12.036 C8.821,15.611 8.503,20.93 8.8,27.554 L8.807,27.825 C8.804,30.434 7.171,33.524 5.979,35.219 C4.17,37.796 2.339,39.372 1.363,42.594 C1.008,43.769 0.788,45.08 0.788,46.54 L0.788,85.412 C0.756,86.408 0.882,87.419 1.106,88.398 C2.3,93.533 5.493,94.804 10.132,95.513 C11.933,95.786 14.21,95.988 16.954,96.002 C21.355,95.978 24.6,95.485 26.661,94.924 C27.628,94.661 28.404,94.367 28.922,94.058 C31.822,92.327 33.223,88.636 33.12,85.386 L33.12,46.54 C33.12,45.134 32.917,43.866 32.585,42.723 L32.585,42.723 Z M12.577,4.18 C12.677,4.036 12.753,3.865 12.797,3.619 L21.108,3.619 C21.14,3.845 21.218,4.035 21.331,4.192 L22.454,6.543 L11.457,6.543 L12.577,4.18 L12.577,4.18 Z M11.834,12.3 C11.957,11.126 12.084,10.145 12.195,9.376 L12.222,9.199 L21.685,9.199 L21.71,9.375 C21.864,10.427 22.043,11.877 22.203,13.681 C22.445,16.47 22.628,20.103 22.548,24.424 L11.441,24.424 C11.387,19.907 11.277,17.679 11.834,12.3 L11.834,12.3 Z M16.418,78.191 C10.757,77.679 6.272,70.529 6.272,61.783 C6.272,53.037 10.757,45.886 16.418,45.373 L16.418,50.82 C15.79,51.263 15.162,52.187 14.757,53.296 C14.452,54.125 14.104,55.545 14.478,57.082 C13.97,56.866 13.466,56.73 13.026,56.661 L13.026,51.2 C13.026,50.842 12.735,50.553 12.377,50.553 C12.017,50.553 11.728,50.842 11.728,51.2 L11.728,71.57 C11.728,73.857 12.897,75.156 13.877,75.843 C14.698,76.419 15.65,76.746 16.418,76.865 L16.418,78.191 L16.418,78.191 Z M16.418,75.547 C15.916,75.449 15.247,75.223 14.624,74.781 C13.561,74.038 13.026,72.957 13.026,71.57 L13.026,69.773 C13.403,69.851 13.873,69.999 14.351,70.252 C14.575,70.376 14.697,70.456 14.817,70.538 C15.878,71.283 16.418,72.363 16.418,73.753 L16.418,75.547 L16.418,75.547 Z M16.418,69.66 C16.041,69.582 15.569,69.435 15.09,69.18 C14.868,69.055 14.746,68.981 14.624,68.895 C13.561,68.149 13.026,67.069 13.026,65.682 L13.026,63.887 C13.525,63.989 14.192,64.213 14.817,64.651 C15.878,65.395 16.418,66.477 16.418,67.864 L16.418,69.66 L16.418,69.66 Z M16.418,63.752 C15.916,63.648 15.247,63.425 14.624,62.982 C13.561,62.242 13.026,61.162 13.026,59.773 L13.026,57.978 C13.525,58.078 14.192,58.304 14.817,58.742 C15.213,59.021 15.536,59.347 15.787,59.716 L15.911,59.915 C16.248,60.497 16.418,61.18 16.418,61.958 L16.418,63.752 L16.418,63.752 Z M16.27,58.041 C15.247,56.398 15.644,54.65 15.969,53.753 C16.31,52.816 16.771,52.219 17.058,51.963 C17.339,52.219 17.805,52.817 18.144,53.755 C18.469,54.651 18.863,56.397 17.844,58.041 L17.058,59.305 L16.27,58.041 L16.27,58.041 Z M19.509,68.896 C19.387,68.982 19.264,69.056 19.139,69.127 C18.564,69.435 18.088,69.582 17.712,69.66 L17.712,67.864 C17.712,66.477 18.249,65.393 19.311,64.651 C19.939,64.212 20.604,63.989 21.104,63.887 L21.104,65.68 C21.104,67.068 20.563,68.148 19.509,68.896 L19.509,68.896 Z M21.104,69.773 L21.104,71.57 C21.104,72.957 20.564,74.038 19.508,74.781 C18.879,75.222 18.213,75.447 17.712,75.546 L17.712,73.752 C17.712,72.361 18.249,71.281 19.311,70.537 C19.434,70.455 19.556,70.375 19.681,70.305 C20.257,69.999 20.728,69.852 21.104,69.773 L21.104,69.773 Z M19.508,62.982 C18.879,63.424 18.213,63.648 17.712,63.752 L17.712,61.958 C17.712,60.568 18.249,59.484 19.311,58.742 C19.939,58.304 20.604,58.078 21.104,57.978 L21.104,59.773 C21.104,61.162 20.563,62.242 19.508,62.982 L19.508,62.982 Z M17.711,78.191 L17.711,76.865 C18.477,76.746 19.433,76.419 20.251,75.844 C21.23,75.156 22.399,73.856 22.399,71.571 L22.399,51.2 C22.399,50.842 22.109,50.553 21.751,50.553 C21.395,50.553 21.103,50.842 21.103,51.2 L21.103,56.661 C20.657,56.732 20.144,56.873 19.633,57.094 C20.008,55.549 19.661,54.127 19.359,53.296 C18.955,52.195 18.333,51.279 17.712,50.833 L17.712,45.373 C23.375,45.881 27.86,53.033 27.86,61.783 C27.859,70.531 23.374,77.688 17.711,78.191 L17.711,78.191 Z" id="Shape" sketch:type="MSShapeGroup"></path>
            </g>
        </g>
    </g>
</svg>