<?xml version="1.0" encoding="UTF-8" standalone="no"?>
<svg width="17px" height="46px" viewBox="0 0 17 46" version="1.1" xmlns="http://www.w3.org/2000/svg" xmlns:xlink="http://www.w3.org/1999/xlink" xmlns:sketch="http://www.bohemiancoding.com/sketch/ns">
    <!-- Generator: Sketch 3.5.2 (25235) - http://www.bohemiancoding.com/sketch -->
    <title>Shape</title>
    <desc>Created with Sketch.</desc>
    <defs></defs>
    <g id="Page-1" stroke="none" stroke-width="1" fill="none" fill-rule="evenodd" sketch:type="MSPage">
        <path d="M8.5,1.0000008 C6.761787,1.0000008 5.243894,2.3039528 4.204374,4.2247296 C3.352309,5.78604857 2.806378,7.77651626 2.619533,10.0066226 L2.58545,10.0066226 C1.715735,10.0066226 1,10.7273724 1,11.6015643 L1,35.0879826 C1,35.8937063 1.614096,36.563105 2.397996,36.6664186 L2.397996,39.0505783 C1.614096,39.1532806 1,39.8226793 1,40.64552 L1,42.996057 C1,43.8537431 1.716343,44.59161 2.58545,44.59161 L14.431591,44.59161 C15.301307,44.59161 16,43.8537431 16,42.996057 L16,40.64552 C16,39.8220679 15.385904,39.1532806 14.602004,39.0505783 L14.602004,36.6664186 C15.385904,36.563105 16,35.8937063 16,35.0879826 L16,11.6015643 C16,10.7267611 15.301307,10.0066226 14.431591,10.0066226 L14.380467,10.0066226 C14.193013,7.77651626 13.647691,5.78604857 12.795626,4.2247296 C11.756106,2.3039528 10.255863,1.0000008 8.5,1.0000008 L8.5,1.0000008 L8.5,1.0000008 L8.5,1.0000008 Z M8.5,1.9775063 C9.778706,1.9775063 11.02333,2.9556231 11.960602,4.6881125 C12.71042,6.07764964 13.239309,7.93056965 13.426154,10.0066226 L3.573846,10.0066226 C3.7613,7.93056965 4.28958,6.07764964 5.039398,4.6881125 C5.99432,2.9556231 7.221294,1.9775063 8.5,1.9775063 L8.5,1.9775063 L8.5,1.9775063 L8.5,1.9775063 Z M2.58545,10.967011 L14.431591,10.967011 C14.773026,10.967011 15.045687,11.2586121 15.045687,11.6015643 L15.045687,35.0879826 C15.045687,35.4480519 14.773026,35.7054189 14.431591,35.7054189 L2.58545,35.7054189 C2.226974,35.7054189 1.954313,35.4480519 1.954313,35.0879826 L1.954313,11.6015643 C1.954313,11.2586121 2.226974,10.967011 2.58545,10.967011 L2.58545,10.967011 L2.58545,10.967011 L2.58545,10.967011 Z M3.352309,36.6835357 L13.647691,36.6835357 L13.647691,39.0340726 L3.352309,39.0340726 L3.352309,36.6835357 L3.352309,36.6835357 L3.352309,36.6835357 L3.352309,36.6835357 Z M2.58545,40.0115781 L14.431591,40.0115781 C14.773026,40.0115781 15.045687,40.2860621 15.045687,40.6461313 L15.045687,42.9966683 C15.045687,43.3402318 14.773026,43.6318329 14.431591,43.6318329 L2.58545,43.6318329 C2.226974,43.6318329 1.954313,43.3396205 1.954313,42.9966683 L1.954313,40.6461313 C1.954313,40.2860621 2.226974,40.0115781 2.58545,40.0115781 L2.58545,40.0115781 L2.58545,40.0115781 L2.58545,40.0115781 Z" id="Shape" stroke="#A1A1A1" fill="#A1A1A1" sketch:type="MSShapeGroup" transform="translate(8.500000, 22.795805) scale(1, -1) translate(-8.500000, -22.795805) "></path>
    </g>
</svg>