<?xml version="1.0" encoding="UTF-8" standalone="no"?>
<svg width="144px" height="180px" viewBox="0 0 144 180" version="1.1" xmlns="http://www.w3.org/2000/svg" xmlns:xlink="http://www.w3.org/1999/xlink" xmlns:sketch="http://www.bohemiancoding.com/sketch/ns">
    <!-- Generator: Sketch 3.4.4 (17249) - http://www.bohemiancoding.com/sketch -->
    <title>noun_188285</title>
    <desc>Created with Sketch.</desc>
    <defs></defs>
    <g id="Page-1" stroke="none" stroke-width="1" fill="none" fill-rule="evenodd" sketch:type="MSPage">
        <g id="noun_188285" sketch:type="MSLayerGroup" fill="#175FED">
            <path d="M84.12,42.87 C54.552,42.87 30.495,66.927 30.495,96.495 L30.495,99.105 L16.029,126.123 C15.282,127.518 15.324,129.201 16.134,130.56 C16.944,131.919 18.414,132.747 19.995,132.747 L30.495,132.747 L30.495,149.358 C30.495,158.871 38.232,166.608 47.745,166.608 L67.245,166.608 L67.245,175.275 C67.245,177.759 69.258,179.775 71.745,179.775 C74.232,179.775 76.245,177.759 76.245,175.275 L76.245,162.108 C76.245,159.624 74.232,157.608 71.745,157.608 L47.745,157.608 C43.194,157.608 39.495,153.909 39.495,149.358 L39.495,128.247 C39.495,125.763 37.482,123.747 34.995,123.747 L27.51,123.747 L38.961,102.357 C39.309,101.703 39.495,100.974 39.495,100.233 L39.495,96.495 C39.495,71.889 59.514,51.87 84.12,51.87 C108.726,51.87 128.745,71.889 128.745,96.495 C128.745,108.336 124.164,119.445 115.83,127.842 C114.747,128.673 114.066,129.981 114.066,131.415 L114.066,175.14 C114.066,177.624 116.079,179.64 118.566,179.64 C121.053,179.64 123.066,177.624 123.066,175.14 L123.066,133.311 C132.543,123.327 137.745,110.328 137.745,96.498 C137.745,66.927 113.688,42.87 84.12,42.87 L84.12,42.87 Z M50.781,103.443 C50.781,107.028 53.688,109.935 57.273,109.935 C60.858,109.935 63.765,107.028 63.765,103.443 C63.765,99.858 60.858,96.951 57.273,96.951 C53.688,96.951 50.781,99.858 50.781,103.443 L50.781,103.443 Z M24.495,69.3 C26.979,69.3 28.992,67.287 28.992,64.803 C28.992,62.319 26.979,60.303 24.495,60.303 C22.011,60.303 19.995,62.319 19.995,64.803 C19.995,67.287 22.011,69.3 24.495,69.3 L24.495,69.3 Z M47.445,45.798 C49.929,45.798 51.942,43.785 51.942,41.301 C51.942,38.817 49.929,36.801 47.445,36.801 C44.961,36.801 42.945,38.817 42.945,41.301 C42.945,43.785 44.961,45.798 47.445,45.798 L47.445,45.798 Z M63.126,28.005 C63.126,30.489 65.142,32.502 67.626,32.502 C70.11,32.502 72.123,30.489 72.123,28.005 C72.123,25.521 70.11,23.505 67.626,23.505 C65.142,23.505 63.126,25.521 63.126,28.005 L63.126,28.005 Z M81.12,13.722 C83.604,13.722 85.617,11.709 85.617,9.225 C85.617,6.741 83.604,4.725 81.12,4.725 C78.636,4.725 76.62,6.741 76.62,9.225 C76.62,11.709 78.636,13.722 81.12,13.722 L81.12,13.722 Z M27.12,38.997 C24.636,38.997 22.62,41.013 22.62,43.497 C22.62,45.981 24.636,47.994 27.12,47.994 C29.604,47.994 31.617,45.981 31.617,43.497 C31.617,41.013 29.604,38.997 27.12,38.997 L27.12,38.997 Z M47.445,25.719 C49.929,25.719 51.942,23.706 51.942,21.222 C51.942,18.738 49.929,16.722 47.445,16.722 C44.961,16.722 42.945,18.738 42.945,21.222 C42.945,23.706 44.961,25.719 47.445,25.719 L47.445,25.719 Z M110.763,36.999 C110.763,39.483 112.779,41.496 115.263,41.496 C117.747,41.496 119.76,39.483 119.76,36.999 C119.76,34.515 117.747,32.499 115.263,32.499 C112.779,32.499 110.763,34.515 110.763,36.999 L110.763,36.999 Z M107.949,19.533 C110.433,19.533 112.446,17.52 112.446,15.036 C112.446,12.552 110.433,10.536 107.949,10.536 C105.465,10.536 103.449,12.552 103.449,15.036 C103.449,17.52 105.465,19.533 107.949,19.533 L107.949,19.533 Z M61.773,9.222 C64.257,9.222 66.27,7.209 66.27,4.725 C66.27,2.241 64.257,0.225 61.773,0.225 C59.289,0.225 57.273,2.241 57.273,4.725 C57.273,7.209 59.289,9.222 61.773,9.222 L61.773,9.222 Z M139.008,41.496 C141.492,41.496 143.505,39.483 143.505,36.999 C143.505,34.515 141.492,32.499 139.008,32.499 C136.524,32.499 134.508,34.515 134.508,36.999 C134.508,39.483 136.524,41.496 139.008,41.496 L139.008,41.496 Z M90.012,34.497 C92.496,34.497 94.509,32.484 94.509,30 C94.509,27.516 92.496,25.5 90.012,25.5 C87.528,25.5 85.512,27.516 85.512,30 C85.512,32.484 87.528,34.497 90.012,34.497 L90.012,34.497 Z M127.563,22.722 C130.047,22.722 132.06,20.709 132.06,18.225 C132.06,15.741 130.047,13.725 127.563,13.725 C125.079,13.725 123.063,15.741 123.063,18.225 C123.063,20.709 125.076,22.722 127.563,22.722 L127.563,22.722 Z M139.008,53.67 C136.524,53.67 134.508,55.686 134.508,58.17 C134.508,60.654 136.524,62.667 139.008,62.667 C141.492,62.667 143.505,60.654 143.505,58.17 C143.505,55.686 141.492,53.67 139.008,53.67 L139.008,53.67 Z M4.995,45.798 C2.511,45.798 0.495,47.814 0.495,50.298 C0.495,52.782 2.511,54.795 4.995,54.795 C7.479,54.795 9.492,52.782 9.492,50.298 C9.492,47.814 7.479,45.798 4.995,45.798 L4.995,45.798 Z M25.806,27.219 C28.29,27.219 30.303,25.206 30.303,22.722 C30.303,20.238 28.29,18.222 25.806,18.222 C23.322,18.222 21.306,20.238 21.306,22.722 C21.306,25.206 23.319,27.219 25.806,27.219 L25.806,27.219 Z" id="Shape" sketch:type="MSShapeGroup"></path>
        </g>
    </g>
</svg>