<?xml version="1.0" encoding="UTF-8" standalone="no"?>
<svg width="74px" height="72px" viewBox="0 0 74 72" version="1.1" xmlns="http://www.w3.org/2000/svg" xmlns:xlink="http://www.w3.org/1999/xlink" xmlns:sketch="http://www.bohemiancoding.com/sketch/ns">
    <!-- Generator: Sketch 3.4.4 (17249) - http://www.bohemiancoding.com/sketch -->
    <title>Group Copy</title>
    <desc>Created with Sketch.</desc>
    <defs></defs>
    <g id="wires" stroke="none" stroke-width="1" fill="none" fill-rule="evenodd" sketch:type="MSPage">
        <g id="Style-Tile-A-Copy-2" sketch:type="MSArtboardGroup" transform="translate(-200.000000, -755.000000)" fill="#175FED">
            <g id="Group-Copy" sketch:type="MSLayerGroup" transform="translate(200.000000, 755.000000)">
                <path d="M73.551,11.51 C73.48,11.255 73.31,11.038 73.078,10.908 L55.428,0.979 C55.279,0.895 55.11,0.851 54.938,0.851 L46.51,0.851 C45.957,0.851 45.51,1.299 45.51,1.851 C45.51,6.456 41.763,10.204 37.157,10.204 C32.551,10.204 28.804,6.457 28.804,1.851 C28.804,1.299 28.357,0.851 27.804,0.851 C27.752,0.851 27.707,0.873 27.658,0.88 C27.645,0.878 27.634,0.879 27.621,0.877 C27.576,0.871 27.537,0.851 27.491,0.851 L19.063,0.851 C18.891,0.851 18.722,0.895 18.573,0.979 L0.923,10.908 C0.692,11.038 0.522,11.255 0.45,11.51 C0.378,11.765 0.411,12.039 0.542,12.27 L8.973,27.251 C9.157,27.578 9.495,27.761 9.845,27.761 C10.011,27.761 10.179,27.72 10.334,27.633 L19.348,22.562 L13.463,61.835 C13.399,62.266 13.62,62.689 14.012,62.881 L30.661,71.048 C30.8,71.116 30.951,71.15 31.101,71.15 C31.244,71.15 31.386,71.12 31.519,71.058 C31.792,70.933 31.995,70.69 32.07,70.399 L37.829,48.041 L44.139,70.421 C44.224,70.719 44.442,70.962 44.729,71.077 C44.849,71.125 44.976,71.149 45.102,71.149 C45.278,71.149 45.454,71.103 45.609,71.011 L59.499,62.844 C59.847,62.64 60.037,62.247 59.983,61.847 L54.625,22.544 L63.668,27.632 C64.149,27.903 64.759,27.732 65.029,27.251 L73.46,12.27 C73.59,12.039 73.622,11.766 73.551,11.51 L73.551,11.51 Z M37.157,12.203 C40.618,12.203 43.679,10.49 45.56,7.873 C44.987,10.263 44.139,12.785 42.923,14.28 C40.503,17.255 37.929,18.15 36.392,18.685 C36.24,18.738 36.098,18.788 35.965,18.835 C33.641,18.087 31.342,16.832 29.951,14.723 C27.031,10.295 26.86,6.988 27.271,4.931 C28.587,9.14 32.521,12.203 37.157,12.203 L37.157,12.203 Z M30.439,68.711 L27.467,67.253 C27.468,67.174 27.471,67.094 27.449,67.013 C27.413,66.877 27.351,66.755 27.271,66.651 C27.057,66.374 26.709,66.239 26.351,66.281 C26.302,66.286 26.255,66.277 26.207,66.289 C26.075,66.324 25.959,66.386 25.856,66.463 L20.088,63.634 C20.138,63.47 20.15,63.294 20.104,63.115 C19.96,62.572 19.404,62.248 18.861,62.391 C18.632,62.452 18.454,62.592 18.326,62.769 L15.548,61.406 L16.759,53.322 C17.137,53.095 17.346,52.653 17.229,52.206 C17.186,52.042 17.096,51.907 16.99,51.79 L18.64,40.769 C18.884,40.97 19.206,41.068 19.536,40.982 C19.807,40.911 20.024,40.736 20.154,40.511 C20.285,40.286 20.33,40.011 20.258,39.74 C20.115,39.197 19.56,38.873 19.018,39.015 C18.972,39.027 18.937,39.058 18.894,39.076 L21.307,22.972 C21.732,22.763 21.978,22.294 21.852,21.819 C21.801,21.626 21.686,21.475 21.55,21.349 L21.627,20.835 C21.634,20.792 21.62,20.753 21.62,20.71 C21.622,20.642 21.623,20.577 21.61,20.508 C21.597,20.438 21.573,20.376 21.546,20.311 C21.53,20.273 21.529,20.233 21.509,20.196 C21.499,20.178 21.481,20.168 21.47,20.151 C21.432,20.092 21.385,20.044 21.335,19.994 C21.291,19.95 21.25,19.905 21.199,19.869 C21.15,19.836 21.096,19.814 21.042,19.79 C20.976,19.76 20.911,19.732 20.841,19.717 C20.821,19.713 20.806,19.7 20.786,19.697 C20.744,19.691 20.707,19.704 20.666,19.703 C20.597,19.701 20.53,19.7 20.462,19.712 C20.386,19.725 20.317,19.752 20.248,19.781 C20.215,19.795 20.18,19.796 20.147,19.814 L15.085,22.662 C15.008,22.652 14.933,22.633 14.852,22.642 C14.802,22.647 14.753,22.638 14.703,22.651 C14.388,22.734 14.167,22.964 14.053,23.244 L10.223,25.399 L10.059,25.107 C10.054,25.049 10.054,24.991 10.038,24.933 C9.976,24.703 9.832,24.525 9.656,24.392 L7.598,20.736 C7.69,20.737 7.782,20.744 7.875,20.719 C8.417,20.576 8.741,20.02 8.6,19.478 C8.456,18.934 7.9,18.61 7.357,18.753 C7.088,18.824 6.876,18.996 6.744,19.217 L2.773,12.16 L10.045,8.069 C10.075,8.094 10.101,8.128 10.135,8.148 C10.361,8.279 10.635,8.324 10.906,8.252 C11.394,8.123 11.686,7.658 11.639,7.171 L19.322,2.849 L25.812,2.849 C24.903,5.097 24.163,9.582 28.279,15.824 C29.181,17.192 30.371,18.249 31.688,19.074 C31.694,19.124 31.684,19.172 31.697,19.222 C31.804,19.63 32.144,19.913 32.537,19.97 C32.668,19.989 32.805,19.982 32.941,19.946 C33.008,19.928 33.06,19.887 33.12,19.858 C36.568,21.513 40.478,21.861 42.489,21.918 L41.079,27.394 C40.618,27.587 40.348,28.08 40.478,28.576 C40.516,28.721 40.587,28.847 40.676,28.955 L37.99,39.397 C36.325,37.821 33.71,35.678 32.032,35.929 C31.893,35.95 31.762,35.989 31.636,36.036 C31.405,35.887 31.117,35.825 30.829,35.901 C30.286,36.044 29.963,36.6 30.105,37.143 C30.151,37.316 30.248,37.455 30.363,37.576 C29.885,38.826 29.916,39.943 30.464,40.903 C30.72,41.351 31.09,41.742 31.558,42.087 C31.515,42.251 31.498,42.422 31.544,42.598 C31.689,43.14 32.242,43.465 32.785,43.323 C33.004,43.265 33.173,43.13 33.305,42.967 C34.267,43.305 35.448,43.545 36.851,43.689 C36.621,44.207 35.893,45.658 34.526,46.958 C34.292,46.801 34,46.733 33.706,46.811 C33.164,46.955 32.841,47.51 32.984,48.054 C32.991,48.079 33.008,48.097 33.017,48.122 C32.367,48.517 31.626,48.845 30.788,49.055 C30.252,49.189 29.926,49.732 30.06,50.268 C30.173,50.722 30.581,51.025 31.029,51.025 C31.109,51.025 31.191,51.016 31.272,50.995 C33.073,50.545 34.491,49.67 35.594,48.697 L34.565,52.692 C34.447,52.87 34.397,53.08 34.409,53.301 L30.439,68.711 L30.439,68.711 Z M44.796,44.94 C44.842,45.116 44.942,45.257 45.062,45.378 C45.012,45.509 44.968,45.638 44.9,45.778 C44.135,45.767 41.799,44.013 39.768,41.928 C43.665,42.247 44.78,43.212 45.097,43.767 C45.118,43.805 45.124,43.851 45.142,43.892 C44.841,44.138 44.69,44.541 44.796,44.94 L44.796,44.94 Z M40.709,50.883 L40.008,48.396 C40.444,49.223 40.872,50.023 41.241,50.688 C41.179,50.692 41.116,50.692 41.053,50.709 C40.923,50.743 40.811,50.808 40.709,50.883 L40.709,50.883 Z M32.202,39.913 C31.923,39.424 31.988,38.75 32.399,37.903 C33.149,37.914 35.41,39.604 37.413,41.636 L37.387,41.739 C33.61,41.407 32.516,40.461 32.202,39.913 L32.202,39.913 Z M70.073,14.209 C69.847,14.075 69.574,14.021 69.301,14.093 C69.269,14.102 69.245,14.124 69.214,14.136 C68.859,14.267 68.605,14.571 68.554,14.932 C68.534,15.062 68.541,15.199 68.577,15.335 C68.652,15.62 68.845,15.836 69.086,15.964 L65.94,21.555 C65.71,21.189 65.272,20.989 64.832,21.105 C64.289,21.248 63.967,21.804 64.108,22.347 C64.226,22.798 64.633,23.08 65.078,23.087 L63.777,25.399 L60.159,23.363 C60.005,22.835 59.463,22.519 58.926,22.661 C58.923,22.662 58.921,22.663 58.918,22.664 L53.853,19.814 C53.539,19.637 53.153,19.649 52.844,19.837 C52.854,19.722 52.854,19.605 52.823,19.486 C52.681,18.943 52.126,18.619 51.583,18.762 C51.04,18.905 50.716,19.461 50.858,20.004 C51.002,20.547 51.558,20.871 52.101,20.727 C52.203,20.7 52.288,20.647 52.372,20.594 C52.365,20.669 52.361,20.744 52.371,20.82 L52.846,24.303 C52.417,24.511 52.17,24.982 52.296,25.459 C52.4,25.855 52.726,26.127 53.104,26.195 L53.725,30.748 C53.73,30.804 53.72,30.858 53.735,30.914 C53.739,30.928 53.749,30.937 53.753,30.951 L57.912,61.457 L46.626,68.092 C46.63,67.994 46.635,67.895 46.608,67.795 C46.573,67.659 46.511,67.537 46.43,67.432 C46.188,67.119 45.774,66.963 45.368,67.07 C45.337,67.078 45.315,67.098 45.286,67.11 L44.294,63.591 C44.347,63.586 44.398,63.595 44.45,63.582 C44.991,63.439 45.314,62.883 45.171,62.34 C45.109,62.106 44.962,61.924 44.781,61.792 C44.543,61.617 44.239,61.535 43.931,61.616 C43.923,61.618 43.918,61.623 43.911,61.626 C43.854,61.642 43.81,61.676 43.76,61.701 L42.761,58.155 C42.843,58.155 42.926,58.15 43.01,58.128 C43.552,57.985 43.875,57.429 43.733,56.886 C43.683,56.698 43.572,56.549 43.441,56.424 C43.194,56.188 42.846,56.068 42.493,56.161 C42.398,56.186 42.311,56.226 42.231,56.274 L41.217,52.677 C41.239,52.679 41.261,52.689 41.284,52.69 C41.38,52.693 41.475,52.699 41.572,52.673 C41.833,52.604 42.034,52.434 42.166,52.221 C42.188,52.25 42.214,52.288 42.232,52.308 C42.425,52.528 42.691,52.638 42.961,52.638 C43.189,52.638 43.42,52.559 43.61,52.4 C44.026,52.053 44.078,51.422 43.742,50.997 C43.465,50.646 42.184,48.259 40.817,45.614 C42.197,46.743 43.78,47.769 44.986,47.769 C45.083,47.769 45.176,47.763 45.267,47.749 C45.882,47.658 46.377,47.294 46.662,46.727 C47.414,45.222 47.473,43.893 46.835,42.775 C45.919,41.17 43.645,40.244 39.916,39.939 L44.752,21.164 C44.831,20.857 44.759,20.531 44.56,20.285 C44.361,20.039 44.055,19.907 43.739,19.916 C43.698,19.917 41.82,19.986 39.401,19.622 C40.691,18.989 42.194,18.007 43.675,16.435 C43.913,16.768 44.334,16.941 44.756,16.83 C45.299,16.687 45.623,16.131 45.48,15.588 C45.399,15.28 45.18,15.056 44.912,14.934 C46.937,11.94 47.927,6.811 48.339,3.969 C48.512,3.731 48.591,3.428 48.511,3.121 C48.502,3.088 48.48,3.064 48.468,3.034 C48.477,2.965 48.483,2.911 48.49,2.848 L54.678,2.848 L59.781,5.719 C59.781,5.806 59.773,5.893 59.797,5.981 C59.94,6.524 60.495,6.848 61.038,6.704 C61.137,6.678 61.219,6.625 61.302,6.574 L67.141,9.859 C67.143,9.865 67.14,9.872 67.142,9.878 C67.286,10.421 67.842,10.745 68.385,10.602 C68.401,10.598 68.411,10.586 68.426,10.582 L71.229,12.159 L70.073,14.209 L70.073,14.209 Z" id="Shape" sketch:type="MSShapeGroup"></path>
                <circle id="Oval" sketch:type="MSShapeGroup" cx="6.181" cy="14.283" r="1.017"></circle>
                <circle id="Oval" sketch:type="MSShapeGroup" cx="26.776" cy="20.521" r="1.017"></circle>
                <path d="M13.268,17.197 C13.132,17.233 13.01,17.295 12.906,17.376 C12.592,17.618 12.436,18.033 12.544,18.44 C12.687,18.983 13.243,19.307 13.786,19.164 C13.938,19.123 14.066,19.043 14.179,18.947 C14.367,18.787 14.498,18.57 14.533,18.325 C14.552,18.194 14.545,18.057 14.509,17.921 C14.365,17.378 13.81,17.054 13.268,17.197 L13.268,17.197 Z" id="Shape" sketch:type="MSShapeGroup"></path>
                <circle id="Oval" sketch:type="MSShapeGroup" cx="19.432" cy="16.623" r="1.017"></circle>
                <circle id="Oval" sketch:type="MSShapeGroup" cx="25.339" cy="15.066" r="1.017"></circle>
                <path d="M13.07,12.466 C12.926,11.923 12.372,11.599 11.829,11.742 C11.422,11.849 11.137,12.189 11.081,12.581 C11.061,12.712 11.068,12.849 11.104,12.984 C11.211,13.391 11.551,13.675 11.944,13.731 L11.949,13.731 C12.078,13.749 12.213,13.743 12.346,13.708 C12.548,13.655 12.705,13.532 12.833,13.386 C13.052,13.142 13.16,12.807 13.07,12.466 L13.07,12.466 Z" id="Shape" sketch:type="MSShapeGroup"></path>
                <circle id="Oval" sketch:type="MSShapeGroup" cx="17.994" cy="11.169" r="1.017"></circle>
                <circle id="Oval" sketch:type="MSShapeGroup" cx="23.9" cy="9.611" r="1.017"></circle>
                <circle id="Oval" sketch:type="MSShapeGroup" cx="16.557" cy="5.714" r="1.017"></circle>
                <circle id="Oval" sketch:type="MSShapeGroup" cx="22.462" cy="4.156" r="1.017"></circle>
                <circle id="Oval" sketch:type="MSShapeGroup" cx="50.402" cy="14.293" r="1.017"></circle>
                <circle id="Oval" sketch:type="MSShapeGroup" cx="48.964" cy="8.838" r="1.017"></circle>
                <circle id="Oval" sketch:type="MSShapeGroup" cx="56.309" cy="12.735" r="1.017"></circle>
                <circle id="Oval" sketch:type="MSShapeGroup" cx="62.215" cy="11.179" r="1.017"></circle>
                <circle id="Oval" sketch:type="MSShapeGroup" cx="54.872" cy="7.281" r="1.017"></circle>
                <path d="M23.16,51.052 C23.179,50.922 23.173,50.785 23.137,50.65 C23.03,50.242 22.69,49.958 22.298,49.902 C22.167,49.883 22.03,49.89 21.895,49.925 C21.352,50.068 21.028,50.624 21.171,51.168 C21.206,51.304 21.269,51.426 21.349,51.53 C21.376,51.564 21.415,51.584 21.447,51.615 C21.462,51.63 21.478,51.643 21.495,51.657 C21.545,51.7 21.586,51.753 21.642,51.786 C21.846,51.905 22.091,51.94 22.337,51.895 C22.362,51.89 22.388,51.897 22.414,51.891 C22.82,51.784 23.104,51.444 23.16,51.052 L23.16,51.052 Z" id="Shape" sketch:type="MSShapeGroup"></path>
                <path d="M21.698,45.195 C21.662,45.059 21.6,44.937 21.52,44.832 C21.306,44.555 20.958,44.42 20.6,44.462 C20.551,44.467 20.504,44.458 20.456,44.47 C19.913,44.613 19.588,45.169 19.731,45.713 C19.875,46.256 20.431,46.581 20.974,46.438 C21.065,46.414 21.14,46.363 21.218,46.318 C21.604,46.093 21.817,45.646 21.698,45.195 L21.698,45.195 Z" id="Shape" sketch:type="MSShapeGroup"></path>
                <circle id="Oval" sketch:type="MSShapeGroup" cx="26.622" cy="43.896" r="1.017"></circle>
                <circle id="Oval" sketch:type="MSShapeGroup" cx="25.184" cy="38.441" r="1.017"></circle>
                <circle id="Oval" sketch:type="MSShapeGroup" cx="23.746" cy="32.987" r="1.017"></circle>
                <circle id="Oval" sketch:type="MSShapeGroup" cx="29.652" cy="31.431" r="1.017"></circle>
                <path d="M22.567,28.516 C23.11,28.373 23.434,27.816 23.292,27.273 C23.185,26.866 22.845,26.582 22.452,26.526 C22.321,26.507 22.184,26.514 22.049,26.549 C21.506,26.692 21.182,27.248 21.325,27.791 C21.468,28.335 22.024,28.659 22.567,28.516 L22.567,28.516 Z" id="Shape" sketch:type="MSShapeGroup"></path>
                <path d="M27.231,26.234 C27.267,26.37 27.329,26.492 27.41,26.596 C27.652,26.909 28.066,27.066 28.473,26.958 C29.016,26.815 29.34,26.259 29.198,25.716 C29.054,25.173 28.498,24.849 27.954,24.992 C27.412,25.135 27.089,25.691 27.231,26.234 L27.231,26.234 Z" id="Shape" sketch:type="MSShapeGroup"></path>
                <path d="M50.703,43.382 C50.808,43.783 51.139,44.061 51.523,44.123 C51.66,44.145 51.802,44.143 51.945,44.105 C52.351,43.998 52.635,43.658 52.692,43.267 C52.711,43.136 52.704,43 52.669,42.864 C52.525,42.321 51.969,41.996 51.426,42.14 C51.29,42.176 51.168,42.237 51.065,42.318 C50.751,42.56 50.596,42.975 50.703,43.382 L50.703,43.382 Z" id="Shape" sketch:type="MSShapeGroup"></path>
                <circle id="Oval" sketch:type="MSShapeGroup" cx="44.342" cy="39.225" r="1.017"></circle>
                <circle id="Oval" sketch:type="MSShapeGroup" cx="50.248" cy="37.668" r="1.017"></circle>
                <path d="M35.991,35.184 C35.971,35.314 35.978,35.451 36.014,35.587 C36.157,36.13 36.713,36.455 37.256,36.311 C37.798,36.168 38.121,35.612 37.979,35.069 C37.918,34.839 37.774,34.661 37.597,34.528 C37.461,34.426 37.311,34.345 37.14,34.321 C37.009,34.302 36.873,34.309 36.738,34.344 C36.659,34.365 36.595,34.411 36.526,34.449 C36.24,34.603 36.036,34.868 35.991,35.184 L35.991,35.184 Z" id="Shape" sketch:type="MSShapeGroup"></path>
                <circle id="Oval" sketch:type="MSShapeGroup" cx="42.903" cy="33.771" r="1.018"></circle>
                <circle id="Oval" sketch:type="MSShapeGroup" cx="48.809" cy="32.214" r="1.017"></circle>
                <path d="M34.576,30.132 C34.639,30.374 34.793,30.562 34.982,30.694 C35.219,30.86 35.517,30.935 35.819,30.856 C36.225,30.748 36.508,30.409 36.564,30.017 C36.584,29.886 36.577,29.75 36.541,29.614 C36.397,29.071 35.843,28.746 35.3,28.889 C34.757,29.032 34.433,29.589 34.576,30.132 L34.576,30.132 Z" id="Shape" sketch:type="MSShapeGroup"></path>
                <circle id="Oval" sketch:type="MSShapeGroup" cx="47.371" cy="26.759" r="1.017"></circle>
                <path d="M34.094,25.418 C34.19,25.421 34.285,25.427 34.382,25.401 C34.788,25.294 35.071,24.954 35.127,24.562 L35.127,24.562 C35.146,24.431 35.139,24.295 35.103,24.159 C35.068,24.023 35.006,23.901 34.925,23.797 C34.764,23.588 34.526,23.449 34.265,23.412 C34.134,23.393 33.997,23.4 33.862,23.435 C33.32,23.579 32.996,24.134 33.138,24.677 C33.256,25.124 33.654,25.406 34.094,25.418 L34.094,25.418 Z" id="Shape" sketch:type="MSShapeGroup"></path>
                <path d="M39.222,23.483 C39.464,23.796 39.879,23.952 40.287,23.844 C40.693,23.737 40.977,23.397 41.034,23.005 C41.053,22.874 41.046,22.738 41.011,22.602 C40.904,22.195 40.564,21.911 40.171,21.854 C40.041,21.835 39.904,21.842 39.769,21.877 C39.225,22.021 38.901,22.577 39.044,23.12 C39.079,23.256 39.142,23.378 39.222,23.483 L39.222,23.483 Z" id="Shape" sketch:type="MSShapeGroup"></path>
                <path d="M46.94,21.448 C46.959,21.318 46.952,21.181 46.917,21.045 C46.773,20.502 46.217,20.178 45.674,20.321 C45.131,20.465 44.808,21.02 44.95,21.563 C45.022,21.834 45.196,22.051 45.422,22.183 C45.647,22.314 45.921,22.359 46.193,22.287 C46.6,22.18 46.884,21.84 46.94,21.448 L46.94,21.448 Z" id="Shape" sketch:type="MSShapeGroup"></path>
                <circle id="Oval" sketch:type="MSShapeGroup" cx="57.747" cy="18.19" r="1.017"></circle>
                <path d="M63.393,15.65 C63.257,15.686 63.136,15.747 63.032,15.828 C62.719,16.07 62.564,16.485 62.672,16.892 C62.707,17.028 62.769,17.15 62.85,17.254 C62.923,17.349 63.016,17.424 63.116,17.487 C63.126,17.493 63.133,17.504 63.142,17.51 C63.367,17.641 63.642,17.687 63.913,17.615 C64.32,17.508 64.604,17.168 64.66,16.775 C64.68,16.645 64.673,16.508 64.637,16.372 C64.493,15.831 63.937,15.506 63.393,15.65 L63.393,15.65 Z" id="Shape" sketch:type="MSShapeGroup"></path>
                <circle id="Oval" sketch:type="MSShapeGroup" cx="17.685" cy="57.92" r="1.017"></circle>
                <path d="M24.865,60.829 C24.833,60.834 24.803,60.826 24.77,60.834 C24.637,60.869 24.517,60.93 24.415,61.009 C24.413,61.01 24.411,61.01 24.409,61.011 C24.095,61.254 23.938,61.668 24.046,62.076 C24.19,62.619 24.746,62.943 25.289,62.8 C25.56,62.728 25.777,62.553 25.907,62.329 C26.038,62.104 26.083,61.829 26.011,61.557 C25.878,61.047 25.376,60.745 24.865,60.829 L24.865,60.829 Z" id="Shape" sketch:type="MSShapeGroup"></path>
                <circle id="Oval" sketch:type="MSShapeGroup" cx="30.936" cy="60.26" r="1.017"></circle>
                <path d="M24.574,56.104 C24.43,55.561 23.876,55.237 23.333,55.38 C22.926,55.487 22.641,55.827 22.585,56.219 C22.565,56.349 22.572,56.486 22.608,56.622 C22.68,56.893 22.854,57.11 23.08,57.241 C23.224,57.325 23.39,57.357 23.56,57.363 C23.656,57.366 23.752,57.372 23.85,57.346 C24.052,57.293 24.209,57.17 24.338,57.024 C24.556,56.779 24.664,56.445 24.574,56.104 L24.574,56.104 Z" id="Shape" sketch:type="MSShapeGroup"></path>
                <circle id="Oval" sketch:type="MSShapeGroup" cx="29.498" cy="54.806" r="1.017"></circle>
                <path d="M29.044,49.092 C28.937,48.685 28.597,48.401 28.204,48.344 C28.073,48.325 27.936,48.332 27.801,48.367 C27.258,48.51 26.934,49.066 27.077,49.61 C27.22,50.153 27.776,50.476 28.319,50.333 C28.862,50.19 29.187,49.635 29.044,49.092 L29.044,49.092 Z" id="Shape" sketch:type="MSShapeGroup"></path>
                <circle id="Oval" sketch:type="MSShapeGroup" cx="50.094" cy="61.044" r="1.016"></circle>
                <circle id="Oval" sketch:type="MSShapeGroup" cx="55.999" cy="59.487" r="1.017"></circle>
                <circle id="Oval" sketch:type="MSShapeGroup" cx="48.655" cy="55.59" r="1.018"></circle>
                <circle id="Oval" sketch:type="MSShapeGroup" cx="54.561" cy="54.033" r="1.017"></circle>
                <circle id="Oval" sketch:type="MSShapeGroup" cx="47.217" cy="50.135" r="1.017"></circle>
                <circle id="Oval" sketch:type="MSShapeGroup" cx="53.123" cy="48.578" r="1.017"></circle>
            </g>
        </g>
    </g>
</svg>