<?xml version="1.0" encoding="UTF-8" standalone="no"?>
<svg width="98px" height="97px" viewBox="0 0 98 97" version="1.1" xmlns="http://www.w3.org/2000/svg" xmlns:xlink="http://www.w3.org/1999/xlink" xmlns:sketch="http://www.bohemiancoding.com/sketch/ns">
    <!-- Generator: Sketch 3.4.4 (17249) - http://www.bohemiancoding.com/sketch -->
    <title>Group</title>
    <desc>Created with Sketch.</desc>
    <defs></defs>
    <g id="wires" stroke="none" stroke-width="1" fill="none" fill-rule="evenodd" sketch:type="MSPage">
        <g id="Style-Tile-A-Copy-2" sketch:type="MSArtboardGroup" transform="translate(-412.000000, -703.000000)" fill="#175FED">
            <g id="Group" sketch:type="MSLayerGroup" transform="translate(412.000000, 703.000000)">
                <path d="M30.759,50.096 L27.756,49.353 C27.219,49.22 26.678,49.547 26.545,50.083 L25.678,53.587 C25.545,54.123 25.872,54.665 26.408,54.798 L29.41,55.541 C29.491,55.561 29.572,55.57 29.651,55.57 C30.1,55.57 30.508,55.265 30.621,54.81 L31.489,51.306 C31.553,51.048 31.511,50.776 31.375,50.549 C31.238,50.323 31.017,50.159 30.759,50.096 L30.759,50.096 Z" id="Shape" sketch:type="MSShapeGroup"></path>
                <path d="M19.638,88.223 C18.421,87.922 17.158,88.693 16.859,89.9 C16.712,90.495 16.805,91.112 17.122,91.637 C17.439,92.162 17.941,92.532 18.534,92.678 C18.716,92.723 18.902,92.746 19.089,92.746 C20.145,92.746 21.061,92.028 21.315,91.003 C21.462,90.407 21.37,89.79 21.053,89.265 C20.735,88.74 20.233,88.37 19.638,88.223 L19.638,88.223 Z M19.373,90.521 C19.335,90.675 19.199,90.746 19.089,90.746 L19.014,90.736 C18.917,90.712 18.863,90.65 18.834,90.603 C18.811,90.563 18.775,90.483 18.8,90.379 C18.836,90.233 18.96,90.162 19.127,90.162 C19.137,90.162 19.147,90.162 19.157,90.163 C19.255,90.187 19.31,90.249 19.339,90.297 C19.368,90.345 19.397,90.423 19.373,90.521 L19.373,90.521 Z" id="Shape" sketch:type="MSShapeGroup"></path>
                <path d="M97.587,52.736 C97.608,46.727 95.271,41.01 91.008,36.638 C86.775,32.296 81.01,29.904 74.777,29.904 C72.501,29.904 70.251,30.228 68.079,30.869 L63.357,26.026 C62.97,25.631 62.337,25.622 61.943,26.007 L59.41,28.476 L57.011,26.182 C55.999,25.214 54.636,24.712 53.273,24.729 C53.129,24.732 52.993,24.765 52.852,24.78 L52.791,24.292 C54.867,22.856 55.645,20.084 54.489,17.759 L51.403,11.558 C50.523,9.791 48.75,8.693 46.775,8.693 C46.062,8.693 45.375,8.845 44.728,9.127 L43.698,7.931 C43.882,7.395 44,6.821 44,6.2 L44,6.099 C44,4.719 43.505,3.431 42.607,2.471 C41.68,1.481 40.409,0.935 39.027,0.935 L32.298,0.938 C29.427,0.94 27,3.307 27,6.106 L27,6.207 C27,7.062 27.229,7.841 27.626,8.512 L27.529,8.596 C27.056,8.003 26.462,7.496 25.733,7.149 L25.64,7.104 C24.94,6.771 24.195,6.603 23.425,6.603 C21.441,6.603 19.609,7.761 18.757,9.552 L15.781,15.806 C15.188,17.052 15.116,18.455 15.578,19.755 C16.04,21.055 16.98,22.098 18.226,22.69 L18.317,22.733 C18.831,22.978 19.37,23.132 19.924,23.197 L19.923,23.689 C19.391,23.86 18.886,24.115 18.426,24.457 L18.344,24.517 C16.056,26.214 15.575,29.455 17.272,31.744 L21.397,37.308 C22.368,38.617 23.92,39.397 25.551,39.397 C26.324,39.397 27.068,39.217 27.754,38.891 L27.882,39.065 C27.121,39.751 26.577,40.645 26.319,41.66 L25.454,45.062 L20.616,43.864 C20.08,43.731 19.538,44.058 19.405,44.594 L17.819,50.995 C9.661,52.972 3.342,59.362 1.25,67.813 C-0.212,73.716 0.749,79.855 3.954,85.098 C6.565,89.369 10.409,92.587 14.955,94.43 C15.06,94.502 15.18,94.545 15.305,94.574 C16.211,94.924 17.134,95.239 18.091,95.476 C19.885,95.92 21.718,96.146 23.54,96.146 L23.541,96.146 C33.891,96.146 42.891,88.994 45.426,78.753 C47.425,70.684 44.608,61.912 38.239,56.227 L39.864,49.662 C39.997,49.126 39.67,48.584 39.134,48.451 L35.706,47.602 C35.721,47.563 35.745,47.531 35.756,47.49 L36.575,44.272 C36.92,42.915 36.717,41.505 36.002,40.302 C35.287,39.099 34.146,38.246 32.79,37.901 L32.69,37.876 C31.653,37.611 30.587,37.674 29.605,38.035 L29.373,37.72 C30.1,36.956 30.581,35.996 30.739,34.932 C30.942,33.567 30.6,32.205 29.779,31.097 L25.654,25.533 C24.769,24.339 23.397,23.592 21.925,23.469 L21.926,23.041 C23.341,22.641 24.554,21.65 25.201,20.29 L28.177,14.035 C28.734,12.865 28.789,11.593 28.465,10.433 L28.989,9.98 C29.904,10.626 31.061,11 32.303,11 L32.305,11 L39.034,11.183 C40.451,11.182 41.706,10.637 42.603,9.725 L43.061,10.256 C41.529,11.783 41.047,14.165 42.062,16.205 L45.148,22.407 C46.028,24.174 47.802,25.271 49.776,25.271 C50.152,25.271 50.52,25.227 50.88,25.148 L50.908,25.375 C50.431,25.632 49.982,25.944 49.596,26.347 L49.527,26.419 C47.53,28.507 47.604,31.831 49.692,33.829 L51.824,35.868 L48.28,39.322 C48.09,39.507 47.982,39.753 47.978,40.018 C47.974,40.283 48.077,40.525 48.262,40.715 L52.866,45.409 C50.242,53.382 52.341,62.064 58.419,68.297 C62.707,72.691 68.483,75 74.688,75 L74.69,75 C79.531,75 84.14,73.569 88.009,70.857 C88.343,70.656 88.343,70.656 88.748,70.325 C89.46,69.781 90.154,69.207 90.807,68.57 C95.159,64.328 97.566,58.777 97.587,52.736 L97.587,52.736 Z M5.66,84.056 C2.735,79.273 1.858,73.675 3.191,68.294 C5.015,60.928 10.344,55.283 17.283,53.218 C16.541,56.424 16.616,57.016 16.961,57.552 C17.269,58.031 17.74,58.119 18.002,58.169 C18.144,58.207 18.636,58.329 19.316,58.498 C14.301,59.941 10.297,63.949 8.99,69.229 C7.379,75.734 10.333,82.317 15.803,85.596 C14.412,87.476 13.834,89.646 14.093,91.848 C10.648,90.1 7.729,87.441 5.66,84.056 L5.66,84.056 Z M10.931,69.71 C12.36,63.938 17.506,59.906 23.444,59.906 C24.474,59.906 25.507,60.034 26.518,60.281 C26.551,60.289 26.582,60.297 26.613,60.304 C29.933,61.142 32.735,63.214 34.504,66.149 C36.284,69.1 36.808,72.568 35.979,75.913 C34.55,81.685 29.404,85.717 23.465,85.717 C22.423,85.717 21.376,85.589 20.354,85.336 C13.449,83.625 9.222,76.615 10.931,69.71 L10.931,69.71 Z M36.476,57.345 C42.6,62.525 45.351,70.74 43.485,78.274 C41.171,87.62 32.969,94.146 23.54,94.146 C21.88,94.146 20.208,93.94 18.571,93.535 C17.807,93.346 17.065,93.106 16.336,92.838 C15.671,90.631 16.135,88.381 17.637,86.513 C18.354,86.817 19.093,87.084 19.872,87.278 C21.051,87.57 22.26,87.717 23.464,87.717 C30.324,87.717 36.269,83.061 37.919,76.394 C38.876,72.531 38.271,68.526 36.215,65.117 C34.215,61.801 31.07,59.446 27.343,58.439 C27.323,58.433 27.308,58.418 27.287,58.413 C27.227,58.397 27.149,58.378 27.08,58.361 C27.064,58.357 27.05,58.351 27.035,58.347 C27.024,58.344 27.014,58.344 27.003,58.341 C25.869,58.056 23.789,57.542 21.956,57.09 C20.523,56.736 19.426,56.423 18.898,56.29 C18.953,55.735 18.998,54.516 19.998,51.928 L19.998,51.924 L21.279,46.048 L37.769,50.153 L36.193,56.341 C36.104,56.71 36.186,57.099 36.476,57.345 L36.476,57.345 Z M32.196,39.813 L32.296,39.838 C33.135,40.051 33.84,40.579 34.283,41.323 C34.725,42.067 34.851,42.939 34.637,43.778 L33.818,46.997 C33.806,47.043 33.816,47.087 33.811,47.133 L27.394,45.544 L28.256,42.154 C28.469,41.315 28.997,40.61 29.741,40.167 C30.487,39.726 31.36,39.601 32.196,39.813 L32.196,39.813 Z M24.046,26.722 L28.171,32.286 C28.675,32.965 28.884,33.8 28.76,34.637 C28.635,35.473 28.193,36.211 27.514,36.715 L27.432,36.775 C26.883,37.183 26.232,37.398 25.55,37.398 C24.535,37.398 23.607,36.931 23.003,36.117 L18.878,30.553 C17.838,29.151 18.133,27.164 19.535,26.124 L19.617,26.064 C20.167,25.656 20.818,25.441 21.499,25.441 C22.515,25.441 23.443,25.908 24.046,26.722 L24.046,26.722 Z M26.371,13.173 L23.395,19.428 C22.994,20.272 22.235,20.883 21.354,21.122 C20.891,21.156 20.719,21.203 20.336,21.214 C19.936,21.189 19.545,21.104 19.176,20.928 L19.084,20.884 C18.321,20.521 17.744,19.883 17.461,19.086 C17.178,18.289 17.222,17.429 17.586,16.666 L20.562,10.411 C21.084,9.313 22.207,8.603 23.424,8.603 C23.895,8.603 24.351,8.707 24.778,8.91 L24.871,8.954 C26.448,9.705 27.12,11.597 26.371,13.173 L26.371,13.173 Z M39.033,9.369 L32.303,9.371 C30.513,9.371 29,7.922 29,6.208 L29,6.106 C29,4.39 30.511,2.939 32.3,2.938 L39.03,2.935 C40.723,2.935 42,4.295 42,6.099 L42,6.2 C42,8.005 40.725,9.367 39.033,9.369 L39.033,9.369 Z M46.939,21.516 L43.853,15.314 C43.075,13.752 43.714,11.847 45.27,11.072 L45.367,11.024 C45.81,10.803 46.284,10.691 46.774,10.691 C47.985,10.691 49.072,11.364 49.612,12.447 L52.697,18.648 C53.475,20.21 52.837,22.115 51.277,22.892 L51.185,22.937 C50.741,23.158 50.267,23.27 49.777,23.27 C48.566,23.271 47.479,22.599 46.939,21.516 L46.939,21.516 Z M51.076,32.384 C49.785,31.149 49.74,29.093 50.975,27.801 L51.044,27.729 C51.643,27.103 52.449,26.748 53.315,26.729 C54.157,26.72 55.001,27.028 55.627,27.627 L57.977,29.874 L53.259,34.472 L51.076,32.384 L51.076,32.384 Z M74.688,73 C69.027,73 63.758,70.906 59.853,66.9 C54.593,61.505 52.601,54.168 54.436,47.24 C56.758,49.587 57.324,50 57.95,50 L57.984,50 C58.554,50 58.878,49.463 59.06,49.265 C59.165,49.165 59.522,48.768 60.014,48.24 C59.685,49.449 59.492,50.702 59.475,51.988 C59.424,55.968 60.927,59.73 63.706,62.58 C66.534,65.481 70.323,67.079 74.376,67.079 C76.788,67.079 79.117,66.503 81.206,65.423 C82.052,67.545 83.538,69.158 85.478,70.109 C82.249,72.003 78.552,73 74.69,73 L74.688,73 L74.688,73 Z M65.421,42.893 C67.838,40.561 71.015,39.275 74.375,39.275 C77.884,39.275 81.165,40.658 83.614,43.17 C88.58,48.264 88.476,56.449 83.383,61.415 C80.959,63.777 77.761,65.079 74.377,65.079 C70.868,65.079 67.588,63.695 65.139,61.183 C62.733,58.716 61.432,55.459 61.476,52.013 C61.519,48.586 62.889,45.382 65.33,42.98 C65.361,42.95 65.392,42.921 65.421,42.893 L65.421,42.893 Z M87.519,68.75 C85.355,68.126 83.735,66.563 82.953,64.347 C83.593,63.895 84.209,63.404 84.78,62.847 C90.663,57.112 90.783,47.658 85.047,41.774 C82.218,38.873 78.429,37.275 74.376,37.275 C70.564,37.275 66.964,38.713 64.192,41.314 C64.182,41.322 64.171,41.325 64.162,41.333 C64.136,41.358 64.1,41.393 64.072,41.42 C64.04,41.451 64.005,41.477 63.973,41.507 C63.947,41.533 63.924,41.562 63.898,41.589 C63.024,42.435 61.471,43.957 60.127,45.27 C59.112,46.261 58.221,47.143 57.844,47.508 C57.422,47.184 56.557,46.413 54.857,44.68 C54.82,44.621 54.783,44.562 54.733,44.511 L50.396,40.064 L62.625,28.139 L67.075,32.702 C67.341,32.974 67.738,33.068 68.099,32.951 C70.254,32.253 72.501,31.891 74.778,31.891 C80.467,31.891 85.723,34.054 89.578,38.007 C93.473,42.001 95.607,47.192 95.589,52.673 C95.57,58.173 93.377,63.274 89.413,67.139 C88.812,67.724 88.174,68.251 87.519,68.75 L87.519,68.75 Z" id="Shape" sketch:type="MSShapeGroup"></path>
                <path d="M60.339,34.012 C59.954,33.617 59.319,33.61 58.925,33.994 L56.709,36.153 C56.52,36.338 56.411,36.591 56.407,36.857 C56.404,37.122 56.506,37.378 56.691,37.568 L59.212,40.152 C59.408,40.353 59.668,40.454 59.928,40.454 C60.18,40.454 60.432,40.36 60.626,40.17 L62.841,38.011 C63.03,37.826 63.139,37.573 63.143,37.308 C63.146,37.043 63.044,36.787 62.859,36.597 L60.339,34.012 L60.339,34.012 Z" id="Shape" sketch:type="MSShapeGroup"></path>
                <path d="M85.46,63.544 C85.021,63.972 84.773,64.546 84.767,65.159 C84.759,65.771 84.991,66.351 85.418,66.79 C85.854,67.236 86.438,67.482 87.062,67.482 C87.664,67.482 88.233,67.252 88.665,66.831 C89.571,65.947 89.589,64.491 88.705,63.585 C87.848,62.707 86.335,62.689 85.46,63.544 L85.46,63.544 Z M87.269,65.398 C87.136,65.527 87.012,65.559 86.85,65.393 C86.78,65.321 86.766,65.24 86.766,65.183 C86.767,65.128 86.783,65.047 86.857,64.975 C86.927,64.907 87.007,64.892 87.062,64.892 C87.108,64.892 87.198,64.904 87.273,64.981 C87.387,65.099 87.384,65.286 87.269,65.398 L87.269,65.398 Z" id="Shape" sketch:type="MSShapeGroup"></path>
                <path d="M19.764,26.383 C19.099,26.876 18.763,27.722 18.841,28.705 C18.906,29.53 19.257,30.408 19.826,31.176 L22.683,35.03 C23.545,36.194 24.773,36.916 25.887,36.916 C26.396,36.916 26.868,36.766 27.286,36.456 C27.951,35.963 28.287,35.117 28.208,34.134 C28.143,33.309 27.792,32.431 27.223,31.664 L24.365,27.809 C23.111,26.114 21.099,25.395 19.764,26.383 L19.764,26.383 Z M21.162,27.923 C21.547,27.923 22.211,28.26 22.759,29 L25.617,32.856 C25.961,33.319 26.179,33.843 26.215,34.294 C26.239,34.599 26.172,34.794 26.059,34.877 C25.84,35.037 24.949,34.73 24.289,33.84 L21.432,29.986 C21.088,29.522 20.87,28.997 20.834,28.548 C20.81,28.243 20.877,28.049 20.989,27.965 C21.026,27.937 21.084,27.923 21.162,27.923 L21.162,27.923 Z" id="Shape" sketch:type="MSShapeGroup"></path>
                <path d="M24.662,9.223 C24.347,9.073 24.006,8.997 23.649,8.997 C22.361,8.997 21.065,9.972 20.347,11.48 L18.281,15.823 C17.865,16.698 17.703,17.643 17.825,18.486 C17.967,19.463 18.487,20.233 19.294,20.616 C19.609,20.766 19.95,20.842 20.308,20.842 C21.596,20.842 22.891,19.867 23.609,18.358 L25.675,14.015 C26.091,13.141 26.253,12.196 26.131,11.353 C25.99,10.376 25.47,9.606 24.662,9.223 L24.662,9.223 Z M23.87,13.156 L21.803,17.5 C21.388,18.372 20.723,18.843 20.308,18.843 C20.249,18.843 20.199,18.832 20.111,18.791 C19.962,18.72 19.847,18.499 19.804,18.201 C19.739,17.751 19.842,17.198 20.086,16.684 L22.152,12.341 C22.568,11.469 23.233,10.998 23.648,10.998 C23.707,10.998 23.757,11.008 23.844,11.049 C23.993,11.12 24.108,11.341 24.151,11.64 C24.217,12.089 24.114,12.642 23.87,13.156 L23.87,13.156 Z" id="Shape" sketch:type="MSShapeGroup"></path>
                <path d="M38.062,3.121 L33.194,3.101 C31.224,3.104 30,4.208 30,6.098 C30,7.939 31.224,9 33.195,9 L33.197,9 L38.068,9.079 C39.405,9.078 41,8.638 41,6.122 C41,5.569 40.94,4.753 40.421,4.094 C39.918,3.455 39.125,3.121 38.062,3.121 L38.062,3.121 Z M38.066,7.164 L33.195,7.165 C32.2,7.165 32,6.788 32,6.131 C32,5.522 32.2,5.144 33.195,5.143 L38.064,5.142 C38.86,5.142 39,5.289 39,6.175 C39,7.015 38.86,7.163 38.066,7.164 L38.066,7.164 Z" id="Shape" sketch:type="MSShapeGroup"></path>
                <path d="M51.815,17.847 L49.718,13.636 C48.778,11.748 47.032,10.699 45.5,11.458 C44.114,12.149 43.778,14.196 44.735,16.118 L46.831,20.329 C47.563,21.8 48.823,22.751 50.04,22.751 C50.385,22.751 50.711,22.675 51.05,22.508 C52.436,21.815 52.771,19.769 51.815,17.847 L51.815,17.847 Z M50.119,20.735 C50.112,20.738 50.09,20.75 50.041,20.75 C49.732,20.75 49.068,20.333 48.623,19.437 L46.526,15.226 C46.019,14.207 46.185,13.352 46.38,13.254 C46.384,13.252 46.505,13.217 46.509,13.215 C46.817,13.215 47.482,13.632 47.928,14.528 L50.024,18.739 C50.532,19.757 50.366,20.613 50.119,20.735 L50.119,20.735 Z" id="Shape" sketch:type="MSShapeGroup"></path>
            </g>
        </g>
    </g>
</svg>