<?xml version="1.0" encoding="UTF-8" standalone="no"?>
<svg width="73px" height="52px" viewBox="0 0 73 52" version="1.1" xmlns="http://www.w3.org/2000/svg" xmlns:xlink="http://www.w3.org/1999/xlink" xmlns:sketch="http://www.bohemiancoding.com/sketch/ns">
    <!-- Generator: Sketch 3.5.2 (25235) - http://www.bohemiancoding.com/sketch -->
    <title>Page 1</title>
    <desc>Created with Sketch.</desc>
    <defs></defs>
    <g id="Page-1" stroke="none" stroke-width="1" fill="none" fill-rule="evenodd" sketch:type="MSPage">
        <g sketch:type="MSLayerGroup" fill="#175FED">
            <path d="M54.27,26.516 L41.398,20.523 C41.438,19.156 40.738,17.816 39.453,17.125 C38.895,16.824 38.289,16.68 37.695,16.68 C36.367,16.68 35.082,17.395 34.41,18.645 C33.438,20.457 34.121,22.715 35.93,23.688 C36.484,23.984 37.078,24.125 37.668,24.125 C38.441,24.125 39.203,23.883 39.84,23.43 L51.84,28.953 L51.84,50.344 C51.84,51.254 52.578,51.996 53.492,51.996 C54.402,51.996 55.141,51.258 55.141,50.344 L55.141,27.969 C55.141,27.836 55.121,27.711 55.09,27.586 C54.98,27.133 54.691,26.738 54.27,26.516 L54.27,26.516 Z" id="Fill-1" sketch:type="MSShapeGroup"></path>
            <path d="M70.918,16.555 L37.852,1.094 C37.422,0.895 36.961,0.797 36.5,0.797 C36.039,0.797 35.578,0.898 35.148,1.098 L2.082,16.555 C0.988,17.066 0.277,18.152 0.246,19.359 C0.215,20.566 0.867,21.688 1.93,22.258 L13.336,28.352 L13.336,36.797 L36.5,48.953 L49.449,42.184 L49.449,30.488 L49.148,30.348 L36.5,37.105 L3.434,19.445 L36.5,3.984 L69.566,19.445 L57.074,26.117 C57.367,26.68 57.531,27.309 57.531,27.969 L57.531,29.484 L57.582,29.457 L57.582,37.816 L62.105,35.453 L62.105,27.043 L71.07,22.254 C72.137,21.684 72.789,20.562 72.754,19.355 C72.723,18.152 72.012,17.066 70.918,16.555 L70.918,16.555 Z" id="Fill-2" sketch:type="MSShapeGroup"></path>
        </g>
    </g>
</svg>